<svg width="58" height="58" viewBox="0 0 58 58" fill="none" xmlns="http://www.w3.org/2000/svg">
<rect width="58" height="58" rx="5" fill="white"/>
<path d="M47.129 19.5578C46.5705 18.2745 45.7651 17.1116 44.7579 16.1342C43.75 15.1539 42.5617 14.3748 41.2575 13.8394C39.9052 13.282 38.4547 12.9967 36.9904 13C34.936 13 32.9316 13.5582 31.1897 14.6126C30.773 14.8648 30.3771 15.1418 30.0021 15.4437C29.627 15.1418 29.2311 14.8648 28.8144 14.6126C27.0726 13.5582 25.0682 13 23.0138 13C21.5344 13 20.1009 13.2812 18.7466 13.8394C17.4381 14.3769 16.2588 15.1501 15.2462 16.1342C14.2377 17.1105 13.4322 18.2737 12.8751 19.5578C12.2959 20.8933 12 22.3115 12 23.7711C12 25.148 12.2834 26.5827 12.8459 28.0423C13.3168 29.2621 13.9919 30.5273 14.8545 31.8049C16.2213 33.8268 18.1007 35.9356 20.4343 38.0732C24.3014 41.6167 28.131 44.0645 28.2935 44.1637L29.2811 44.7922C29.7187 45.0693 30.2813 45.0693 30.7188 44.7922L31.7064 44.1637C31.8689 44.0604 35.6944 41.6167 39.5657 38.0732C41.8993 35.9356 43.7786 33.8268 45.1455 31.8049C46.0081 30.5273 46.6873 29.2621 47.154 28.0423C47.7166 26.5827 48 25.148 48 23.7711C48.0041 22.3115 47.7083 20.8933 47.129 19.5578Z" fill="#C0C0C0"/>
</svg>
